<svg xmlns="http://www.w3.org/2000/svg" viewBox="0 0 800 520" role="img" aria-labelledby="title"><title>신청 서류와 확인 목록</title><rect width="800" height="520" fill="#e7efe3"/><path d="M0 405H800" stroke="#0f766e" stroke-width="3" opacity=".18"/><path d="M80 124h190v245H80z" fill="#fdfbf4" stroke="#274747" stroke-width="5"/><path d="M106 162h138M106 198h108M106 234h126" stroke="#8eaaa2" stroke-width="8" stroke-linecap="round"/><path d="m108 281 15 15 29-37m-44 73 15 15 29-37" fill="none" stroke="#0f766e" stroke-width="9" stroke-linecap="round" stroke-linejoin="round"/><rect x="383" y="65" width="262" height="347" rx="12" fill="#fffdf7" stroke="#274747" stroke-width="5"/><path d="M424 126h180M424 167h151M424 208h168M424 249h121" stroke="#c2d3c3" stroke-width="9" stroke-linecap="round"/><rect x="424" y="286" width="34" height="34" rx="5" fill="#d7e8dc" stroke="#0f766e" stroke-width="5"/><path d="m432 303 8 8 14-18" fill="none" stroke="#0f766e" stroke-width="5" stroke-linecap="round" stroke-linejoin="round"/><path d="M480 303h120" stroke="#8eaaa2" stroke-width="8" stroke-linecap="round"/><circle cx="662" cy="378" r="48" fill="#d29f3c" opacity=".9"/><path d="M665 352v52M641 378h48" stroke="#fffdf7" stroke-width="8" stroke-linecap="round"/></svg>
